PathFileType	4	(X/Y/Z)	C:/Users/beibeiliu/ov580/test_trc/User3\sequence.25_training_dense_right.trc
DataRate	CameraRate	NumFrames	NumMarkers	Units	OrigDataRate	OrigDataStartFrame	OrigNumFrames
120	120	8	19	mm	120	88	145
Frame#	Time	ThumbCMC			ThumbMCP			ThumbIP			ThumbTip			IndexMCP			IndexPIP			IndexTip			MiddleMCP			MiddlePIP			MiddleTip			RingMCP			RingPIP			RingTip			PinkyMCP			PinkyPIP			PinkyTip			BackHand1			BackHand2			BackHand3	
		X0	Y0	Z0	X1	Y1	Z1	X2	Y2	Z2	X3	Y3	Z3	X4	Y4	Z4	X5	Y5	Z5	X6	Y6	Z6	X7	Y7	Z7	X8	Y8	Z8	X9	Y9	Z9	X10	Y10	Z10	X11	Y11	Z11	X12	Y12	Z12	X13	Y13	Z13	X14	Y14	Z14	X15	Y15	Z15	X16	Y16	Z16	X17	Y17	Z17	X18	Y18	Z18	
87	0.725	191.044	-2.30262	8.16716	175.815	20.9412	-20.6409	156.362	33.1656	-43.4583	130.985	29.985	-53.1113	176.601	-21.4863	-67.5019	171.538	-3.84259	-90.0571	165.161	25.5649	-97.5086	158.738	-32.2806	-70.515	152.936	-16.27	-95.3295	139.098	14.6196	-106.299	139.437	-34.4635	-58.5988	127.798	-20.3118	-81.9952	121.876	7.24085	-91.221	118.035	-27.2122	-39.2836	110.995	-11.0297	-57.1904	105.201	16.1983	-63.4686	150.085	-49.8745	-5.22826	153.713	-50.579	21.7255	182.307	-41.5573	3.57642	
88	0.733333	192.464	-3.65029	10.3659	178.751	21.5244	-18.8792	157.861	27.8518	-39.9914	132.679	23.6328	-49.3627	178.215	-23.7662	-64.9286	170.927	-4.48091	-91.6052	165.573	25.4909	-96.6001	157.411	-35.4528	-68.7831	152.486	-20.7816	-93.8085	143.169	13.7447	-107.54	143.787	-34.4834	-59.3196	132.166	-19.9685	-83.0083	121.029	9.392	-90.4591	123.629	-28.9752	-38.8981	111.862	-10.6784	-57.9598	109.993	17.7856	-63.0087	153.5	-48.5099	-8.68927	156.926	-52.2099	20.6304	185.301	-43.5839	2.39716	
89	0.741667	191.817	-5.72561	5.42086	178.58	18.5959	-17.7845	158.323	27.7598	-42.479	135.511	24.4231	-48.5026	181.024	-24.454	-64.9742	177.885	-7.49508	-89.6958	162.967	21.4493	-98.071	159.188	-36.755	-66.2939	154.222	-20.8667	-95.7645	143.885	12.893	-107.323	143.514	-36.5802	-58.9153	130.804	-23.6737	-79.8488	125.135	5.4975	-89.8135	120.621	-30.8745	-39.1808	113.995	-15.688	-56.8222	108.43	10.3024	-63.1164	151.79	-51.7392	-4.28945	153.953	-54.0181	22.2738	187.23	-45.4317	0.152694	
90	0.75	193.924	-5.55132	7.38091	179.724	18.0767	-21.1355	158.889	26.5869	-45.1559	134.66	26.0848	-53.3357	184.297	-26.3278	-67.2218	175.052	-10.7205	-89.7814	167.502	16.9336	-98.7304	159.29	-39.9835	-64.7029	154.072	-24.7608	-94.7523	142.58	4.70635	-108.412	139.884	-38.8502	-55.4691	129.496	-20.5609	-81.21	121.323	8.71318	-86.1396	121.839	-33.3008	-37.5028	108.709	-17.7794	-55.9252	107.418	5.44869	-62.8426	154.229	-52.7114	-7.85812	159.084	-54.0766	26.327	188.42	-46.7771	0.955318	
91	0.758333	191.831	-9.36926	7.19305	180.628	15.449	-22.1508	161.948	24.7591	-39.7983	139.06	26.1657	-54.5446	181.28	-29.5224	-65.8287	177.229	-10.0863	-92.382	167.514	15.2695	-99.5008	159.691	-40.9635	-66.3671	151.746	-24.318	-96.538	141.382	6.2805	-107.109	141.14	-38.1997	-57.6574	126.547	-18.2296	-79.1251	124.076	9.99032	-80.3716	119.607	-36.5867	-36.5133	110.791	-20.3339	-57.8631	107.216	1.18319	-65.5339	153.336	-55.5631	-7.46876	156.403	-56.6989	25.5817	187.758	-47.1973	4.53939	
92	0.766667	193.708	-10.4052	5.72763	179.208	10.1494	-18.2158	164.06	23.3122	-41.6053	140.834	20.2038	-52.6453	185.185	-30.9545	-65.0835	179.018	-13.7041	-92.5843	167.252	11.0214	-99.9818	161.444	-43.0918	-65.8945	154.625	-24.8384	-94.1266	139.773	4.05473	-101.388	142.71	-37.9806	-56.5102	129.182	-20.8089	-75.0421	123.075	15.6997	-71.1086	121.886	-39.6115	-40.1026	114.93	-28.1981	-56.2564	109.297	-2.35448	-68.7873	154.329	-58.1077	-4.93132	156.51	-59.304	27.8238	187.635	-48.0534	5.15872	
93	0.775	194.378	-12.9199	7.6102	182.089	11.3017	-17.2812	163.782	19.4132	-44.1636	143.087	23.0284	-56.5706	185.14	-34.1458	-63.1945	181.799	-18.5645	-90.0858	166.458	7.37055	-100.194	164.456	-44.4106	-63.4624	150.592	-25.5091	-92.598	142.098	8.60583	-97.247	141.793	-39.6586	-55.7606	130.391	-21.2663	-72.8744	127.248	9.19285	-71.7673	124.694	-41.6418	-37.486	113.713	-30.7616	-56.4418	109.2	-6.32331	-68.6134	152.972	-60.6685	-4.96446	161.269	-58.8316	29.3081	189.013	-52.7201	2.95993	
94	0.783333	194.242	-11.5469	11.6214	182.712	11.8201	-14.6287	165.175	21.7104	-43.3794	141.338	19.5799	-56.1075	184.123	-34.3445	-63.6241	179.159	-18.3721	-91.1502	171.946	5.74655	-102.028	165.251	-45.2542	-65.0312	154.012	-25.9441	-92.0718	141.526	8.05358	-96.0309	143.439	-44.5125	-55.9748	130.634	-26.1726	-73.5748	122.963	4.50672	-72.9349	130.177	-45.2476	-34.8351	118.375	-36.703	-57.3247	109.39	-12.0715	-71.9606	156.129	-60.4325	-3.83533	160.144	-61.0466	24.3839	193.519	-51.7641	7.37115	
